<svg width="26" height="26" viewBox="0 0 26 26" fill="none" xmlns="http://www.w3.org/2000/svg">
<path fill-rule="evenodd" clip-rule="evenodd" d="M18.068 7.56875C18.068 11.0837 15.8959 14.1 13 14.1C10.104 14.1 7.93203 11.0837 7.93203 7.56875C7.93203 4.05385 9.80118 2 13 2C16.1988 2 18.068 4.05385 18.068 7.56875ZM4.10524 21.9572C4.53926 22.4607 6.40556 24 13 24C19.5944 24 21.4608 22.4607 21.8947 21.9572C21.9792 21.8593 22.0103 21.7362 21.9971 21.6088C21.8969 20.638 21.0015 16.3 13 16.3C4.99848 16.3 4.10311 20.638 4.00291 21.6088C3.98975 21.7362 4.02077 21.8593 4.10524 21.9572Z" fill="#F2F2F3"/>
<rect x="0.5" y="0.5" width="25" height="25" stroke="#4C4CFF" stroke-dasharray="2 2"/>
</svg>
